<?xml version="1.0" encoding="utf-8"?>
<!-- Generator: Adobe Illustrator 23.0.1, SVG Export Plug-In . SVG Version: 6.00 Build 0)  -->
<svg version="1.1" id="Слой_1" xmlns="http://www.w3.org/2000/svg" xmlns:xlink="http://www.w3.org/1999/xlink" x="0px" y="0px"
	 viewBox="0 0 595.3 841.9" enable-background="new 0 0 595.3 841.9" xml:space="preserve">
<path fill-rule="evenodd" clip-rule="evenodd" fill="#DC332E" d="M285.5,301.6C325,273.5,495,270.3,438,211.9
	C407.7,270.2,310.7,247.7,285.5,301.6z"/>
<path fill-rule="evenodd" clip-rule="evenodd" fill="#DC332E" d="M394.9,139.9c-20.3,15.6-52.5,4.8-73.7,23.8
	c-20.1,18.1-33.5,53.8-37.4,90.7C442.9,228.7,421.5,192.4,394.9,139.9z M304.1,236.8c1.7-16,7.4-31.5,16.2-39.4
	c9.1-8.3,23-3.6,31.8-10.3C363.7,209.9,372.9,225.6,304.1,236.8z"/>
<path fill-rule="evenodd" clip-rule="evenodd" fill="#DC332E" d="M238.3,263.7c10.8-30.2-15.4-97.3,53.4-99
	C257.8,189.7,286.3,232.8,238.3,263.7z"/>
<path fill-rule="evenodd" clip-rule="evenodd" fill="#DC332E" d="M199.9,304.2c1.1-33.7-50.2-89.5,23.2-117.2
	C195.2,224.3,240.8,255.7,199.9,304.2z"/>
<path fill-rule="evenodd" clip-rule="evenodd" fill="#DC332E" d="M178.8,375.9c-11.6-38.2-82.4-84.1-22-139.1
	C144,287.7,199.9,308.1,178.8,375.9z"/>
<path fill-rule="evenodd" clip-rule="evenodd" fill="#DC332E" d="M179.2,453.3c-24-34.8-107-59.9-63.4-134.6
	C119.1,374.2,179,378.2,179.2,453.3z"/>
<path fill-rule="evenodd" clip-rule="evenodd" fill="#DC332E" d="M211.9,540c-33.1-29-117.5-44.4-106.3-120.8
	C125.4,473.6,186.3,468.4,211.9,540z"/>
<path fill-rule="evenodd" clip-rule="evenodd" fill="#DC332E" d="M253.9,603.2c-34-15.8-107.9-21.6-116.7-74.1
	C177,565.9,234.1,558,253.9,603.2z"/>
<path fill-rule="evenodd" clip-rule="evenodd" fill="#DC332E" d="M288.5,649.3c-21.6-6.2-61.4,0.9-78.7-35.2
	C239.4,634.4,267.3,620,288.5,649.3z"/>
<path fill-rule="evenodd" clip-rule="evenodd" fill="#7F141F" d="M229.2,422.7c23.4,22.9,95.3,31.1,177.1,25.8
	c59.2-3.8,47.7-15.5,58.9-51.7c-107.9-4.3-86.6-1.3-156.2-24.4C259.3,356,276.3,370.4,229.2,422.7z"/>
<path fill-rule="evenodd" clip-rule="evenodd" fill="#DC332E" d="M318.2,683.2c-14.2-1.1-38.6,7.2-52.9-11.6
	C285.8,679.9,302,668.7,318.2,683.2z"/>
<path fill-rule="evenodd" clip-rule="evenodd" fill="#7F141F" d="M272,550.8c15.2,14.4,62.2,20.5,115.2,17.2
	c38.4-2.4,31.5-12.5,38.8-35.3c-69.9-2.7-59.6-5.2-105.8-17.1C287.5,507.2,302.5,518,272,550.8z"/>
<path fill-rule="evenodd" clip-rule="evenodd" fill="#DC332E" d="M347.2,667c14.5-6.8,42.6-4.3,52.4-35.2
	C380.3,650.7,360.1,641.3,347.2,667z"/>
<path fill-rule="evenodd" clip-rule="evenodd" fill="#DC332E" d="M276.7,268.4c8.4-7.4-1.5-6-5.7-4.7
	c-175.5,146.7,25.7,381.6,79.8,434.3c5,4.8,14.8,4.4,9.4-1.6C94.4,407.9,250.7,291.3,276.7,268.4z"/>
<path fill-rule="evenodd" clip-rule="evenodd" fill="#DC332E" d="M230.5,424.5c-11.7-135.1,147-96.3,233.9-162.2
	C544.1,387.4,292.9,380.2,230.5,424.5z"/>
<path fill-rule="evenodd" clip-rule="evenodd" fill="#DC332E" d="M467,398c26.4,137.7-142.6,99.2-195,153.9
	C179.9,435.6,352.4,475.1,467,398z"/>
<path fill-rule="evenodd" clip-rule="evenodd" fill="#DC332E" d="M324.4,631.7c12.5-29.6,103.5-4.1,102.2-99.5
	C360.1,585.2,270.6,559,324.4,631.7z"/>
</svg>
